<?xml version="1.0" encoding="utf-8"?>
<!-- Generator: Adobe Illustrator 16.0.0, SVG Export Plug-In . SVG Version: 6.00 Build 0)  -->
<!DOCTYPE svg PUBLIC "-//W3C//DTD SVG 1.1//EN" "http://www.w3.org/Graphics/SVG/1.1/DTD/svg11.dtd">
<svg version="1.1" id="Layer_1" xmlns="http://www.w3.org/2000/svg" xmlns:xlink="http://www.w3.org/1999/xlink" x="0px" y="0px"
	 width="208.922px" height="118.864px" viewBox="0 0 208.922 118.864" enable-background="new 0 0 208.922 118.864"
	 xml:space="preserve">
<rect x="1" y="1" fill="none" stroke="#58595B" stroke-width="2" stroke-miterlimit="10" width="206.922" height="100.914"/>
<text transform="matrix(1.05 0 0 1 13.7637 26.1401)" fill="#58595B" font-family="'DroidSerif-Bold'" font-size="14" letter-spacing="0.952">Bjergsen</text>
<rect x="1" y="101.913" fill="#58595B" stroke="#58595B" stroke-width="2" stroke-miterlimit="10" width="206.922" height="15.951"/>
<text transform="matrix(0.9 0 0 1 188.4512 113.7432)" fill="#FFFFFF" font-family="'MyriadPro-Regular'" font-size="9.7753">6h</text>
<path fill="#FFFFFF" d="M181.795,114.724c-2.305,0-4.178-1.874-4.178-4.178c0-2.303,1.873-4.177,4.178-4.177
	c2.304,0,4.178,1.874,4.178,4.177C185.973,112.85,184.099,114.724,181.795,114.724z M181.795,107.347
	c-1.765,0-3.201,1.434-3.201,3.199s1.437,3.201,3.201,3.201c1.766,0,3.201-1.436,3.201-3.201S183.561,107.347,181.795,107.347z
	 M184.074,112.136l-1.791-1.791v-2.533h-0.977v2.938l2.076,2.076L184.074,112.136z"/>
<text transform="matrix(0.9 0 0 1 21.481 113.1533)" fill="#FFFFFF" font-family="'MyriadPro-Regular'" font-size="9.7753">82</text>
<path fill="#FFFFFF" d="M15.83,112.683v0.977H9.775v-4.033H8.316l1.947-3.372l1.947,3.372h-1.459v3.057H15.83z M16.644,107.231
	v3.055h-1.46l1.947,3.373l1.949-3.373h-1.461v-4.032h-6.054v0.978H16.644z"/>
<text transform="matrix(0.9 0 0 1 55.6177 113.1533)" fill="#FFFFFF" font-family="'MyriadPro-Regular'" font-size="9.7753">783</text>
<path fill="none" stroke="#FFFFFF" stroke-width="0.9765" stroke-miterlimit="10" d="M51.73,107.042
	c-0.898-0.896-2.352-0.896-3.252,0c-0.896-0.896-2.352-0.896-3.25,0c-0.896,0.897-0.896,2.354,0,3.25l3.25,3.252l3.252-3.252
	C52.629,109.396,52.629,107.939,51.73,107.042z"/>
<path fill="#6441A4" d="M175.221,54.006h-6.951V33.227h6.951V54.006z M156.154,33.227h-6.945v20.779h6.945V33.227z M194.2,12.686
	v47.633l-21.341,21.3h-15.301l-10.064,10.19h-10.206v-10.2h-19.195V26.571l5.171-13.886H194.2z M187.255,19.631h-57.052v49.813
	h15.58v10.46l10.491-10.46h18.946l12.034-12.007V19.631z"/>
</svg>
